<?xml version="1.0" encoding="UTF-8" standalone="no"?>
<!-- Created with Inkscape (http://www.inkscape.org/) -->

<svg
   xmlns:dc="http://purl.org/dc/elements/1.1/"
   xmlns:cc="http://creativecommons.org/ns#"
   xmlns:rdf="http://www.w3.org/1999/02/22-rdf-syntax-ns#"
   xmlns:svg="http://www.w3.org/2000/svg"
   xmlns="http://www.w3.org/2000/svg"
   xmlns:sodipodi="http://sodipodi.sourceforge.net/DTD/sodipodi-0.dtd"
   xmlns:inkscape="http://www.inkscape.org/namespaces/inkscape"
   width="210mm"
   height="297mm"
   viewBox="0 0 210 297"
   version="1.1"
   id="svg838"
   sodipodi:docname="graphics.svg"
   inkscape:version="0.92.4 (5da689c313, 2019-01-14)">
  <defs
     id="defs832" />
  <sodipodi:namedview
     id="base"
     pagecolor="#ffffff"
     bordercolor="#666666"
     borderopacity="1.0"
     inkscape:pageopacity="0.0"
     inkscape:pageshadow="2"
     inkscape:zoom="0.70710678"
     inkscape:cx="-481.08262"
     inkscape:cy="1217.2711"
     inkscape:document-units="mm"
     inkscape:current-layer="layer1"
     showgrid="false"
     inkscape:window-width="1920"
     inkscape:window-height="986"
     inkscape:window-x="-11"
     inkscape:window-y="-11"
     inkscape:window-maximized="1" />
  <metadata
     id="metadata835">
    <rdf:RDF>
      <cc:Work
         rdf:about="">
        <dc:format>image/svg+xml</dc:format>
        <dc:type
           rdf:resource="http://purl.org/dc/dcmitype/StillImage" />
      </cc:Work>
    </rdf:RDF>
  </metadata>
  <g
     inkscape:label="Layer 1"
     inkscape:groupmode="layer"
     id="layer1">
    <path
       sodipodi:nodetypes="ccsccsc"
       inkscape:connector-curvature="0"
       id="path872"
       d="m -108.67258,70.87605 c -1.20226,-12.879253 -3.59333,-12.946432 6.35,-15.016566 8.371593,10.430438 29.96338,-6.83387 38.642037,-12.458915 15.035263,-9.74506 86.449307,16.412232 99.941481,15.666149 l -7.14375,20.765134 C 20.244926,91.217492 -14.6028,92.768584 -32.328651,90.926578 -76.512369,86.335167 -88.81899,100.05888 -108.67258,70.87605 Z"
       style="opacity:0.1;fill:#000000;fill-opacity:0.98823529;stroke:none;stroke-width:0.25177813px;stroke-linecap:butt;stroke-linejoin:miter;stroke-opacity:1"
       inkscape:export-xdpi="28.962929"
       inkscape:export-ydpi="28.962929" />
    <path
       sodipodi:nodetypes="cscscsc"
       inkscape:connector-curvature="0"
       id="path874"
       d="m -286.44806,60.810967 c -1.38609,-1.511879 0.55469,-5.14136 3.65307,-4.826196 12.09694,1.230488 26.02603,-15.172699 37.21227,-16.121353 10.34032,4.695355 13.22385,11.11926 17.95681,15.364524 3.98725,3.576398 10.21809,-3.016704 14.007,0.610642 -1.8148,12.585647 -21.35184,19.267296 -29.62276,18.556157 -20.60415,-1.771558 -34.82262,4.449003 -43.20639,-13.583774 z"
       style="opacity:0.1;fill:#000000;fill-opacity:0.98823529;stroke:none;stroke-width:0.12090518px;stroke-linecap:butt;stroke-linejoin:miter;stroke-opacity:1"
       inkscape:export-xdpi="28.962929"
       inkscape:export-ydpi="28.962929" />
    <path
       style="opacity:0.1;fill:#000000;fill-opacity:0.98823529;stroke:none;stroke-width:0.12090518px;stroke-linecap:butt;stroke-linejoin:miter;stroke-opacity:1"
       d="m -194.91449,64.04415 c -0.94433,-1.026116 -2.68619,-7.457627 2.40841,-7.543605 12.39088,-0.209113 28.32153,-11.369809 39.27217,-12.298484 15.68485,4.431501 21.43202,4.219202 29.82565,11.903793 -0.64853,6.38465 -5.72028,21.250969 -32.82999,16.913316 -20.35707,-3.257206 -30.01345,5.291005 -38.67624,-8.97502 z"
       id="path876"
       inkscape:connector-curvature="0"
       sodipodi:nodetypes="csccsc"
       inkscape:export-xdpi="28.962929"
       inkscape:export-ydpi="28.962929" />
    <path
       style="fill:#f05a82;fill-opacity:0.98823529;stroke:none;stroke-width:0.26458332px;stroke-linecap:butt;stroke-linejoin:miter;stroke-opacity:1"
       d="m -102.32258,55.859484 c 3.087574,-4.856253 11.49933,-6.539273 14.92852,-10.09974 9.568239,-9.934534 16.940459,-15.491279 24.727138,-22.414612 13.489963,-11.994267 19.866884,-26.1715306 31.972354,-27.089813 36.7216344,21.493382 50.983431,43.101509 66.955506,62.811399 -7.960385,14.0135 -25.932684,26.669056 -41.8367007,24.401906 -39.6425853,-5.65113 -80.0492853,7.83502 -96.7468173,-27.60914 z"
       id="path842"
       inkscape:connector-curvature="0"
       sodipodi:nodetypes="cssccsc"
       inkscape:export-xdpi="28.962929"
       inkscape:export-ydpi="28.962929" />
    <path
       style="fill:#f05a82;stroke:none;stroke-width:0.14321946px;stroke-linecap:butt;stroke-linejoin:miter;stroke-opacity:1;fill-opacity:0.98823529"
       d="m -282.74389,55.838584 c 9.52162,-9.5229 24.97336,-32.212393 37.16117,-33.662713 10.34032,6.58844 13.22385,15.602353 17.95681,21.559233 3.98725,5.01834 10.21809,7.01365 14.007,12.10348 -4.1299,7.91442 -21.37163,16.07146 -29.62276,14.79104 -20.56689,-3.1916 -30.83943,5.2268 -39.50222,-14.79104 z"
       id="path842-1"
       inkscape:connector-curvature="0"
       sodipodi:nodetypes="ccscsc"
       inkscape:export-xdpi="28.962929"
       inkscape:export-ydpi="28.962929" />
    <path
       sodipodi:nodetypes="cccsc"
       inkscape:connector-curvature="0"
       id="path859"
       d="m -192.53324,56.105854 c 9.52162,-9.5229 27.11152,-27.134272 39.29933,-28.584592 15.68485,6.218205 21.43202,17.801708 29.82565,28.584592 -0.64853,8.958831 -20.93382,14.225008 -32.82999,11.851075 -20.41063,-4.073029 -27.6322,8.166765 -36.29499,-11.851075 z"
       style="fill:#f05a82;fill-opacity:0.98823529;stroke:none;stroke-width:0.14321946px;stroke-linecap:butt;stroke-linejoin:miter;stroke-opacity:1"
       inkscape:export-xdpi="28.962929"
       inkscape:export-ydpi="28.962929" />
    <path
       inkscape:export-ydpi="28.962929"
       inkscape:export-xdpi="28.962929"
       sodipodi:nodetypes="cssccc"
       inkscape:connector-curvature="0"
       id="path818"
       d="m -102.32258,55.859484 c 3.087574,-4.856253 11.49933,-6.539273 14.92852,-10.09974 9.568239,-9.934534 16.940459,-15.491279 24.727138,-22.414612 13.489963,-11.994267 19.866884,-26.1715306 31.972354,-27.089813 5.325731,26.877115 -2.717248,44.128758 25.1188053,87.213305 -39.6425853,-5.65113 -80.0492853,7.83502 -96.7468173,-27.60914 z"
       style="opacity:0.1;fill:#000000;fill-opacity:0.98823529;stroke:none;stroke-width:0.26458332px;stroke-linecap:butt;stroke-linejoin:miter;stroke-opacity:1" />
    <path
       inkscape:export-ydpi="28.962929"
       inkscape:export-xdpi="28.962929"
       style="opacity:0.1;fill:#a10f36;fill-opacity:0.98823529;stroke:none;stroke-width:0.14321946px;stroke-linecap:butt;stroke-linejoin:miter;stroke-opacity:1"
       d="m -192.53324,56.105854 c 9.52162,-9.5229 27.11152,-27.134272 39.29933,-28.584592 -5.05531,13.478556 0.31951,26.957111 -3.00434,40.435667 -20.41063,-4.073029 -27.6322,8.166765 -36.29499,-11.851075 z"
       id="path820"
       inkscape:connector-curvature="0"
       sodipodi:nodetypes="cccc" />
    <path
       inkscape:export-ydpi="28.962929"
       inkscape:export-xdpi="28.962929"
       sodipodi:nodetypes="cccc"
       inkscape:connector-curvature="0"
       id="path822"
       d="m -282.74389,55.838584 c 9.52162,-9.5229 24.97336,-32.212393 37.16117,-33.662713 -0.89264,16.290667 -7.65201,33.070228 2.34105,48.453753 -20.56689,-3.1916 -30.83943,5.2268 -39.50222,-14.79104 z"
       style="opacity:0.1;fill:#6a0a23;fill-opacity:0.98823529;stroke:none;stroke-width:0.14321946px;stroke-linecap:butt;stroke-linejoin:miter;stroke-opacity:1" />
  </g>
</svg>
