<?xml version="1.0" encoding="UTF-8" standalone="no"?>
<!-- Created with Inkscape (http://www.inkscape.org/) -->

<svg
   xmlns:dc="http://purl.org/dc/elements/1.1/"
   xmlns:cc="http://creativecommons.org/ns#"
   xmlns:rdf="http://www.w3.org/1999/02/22-rdf-syntax-ns#"
   xmlns:svg="http://www.w3.org/2000/svg"
   xmlns="http://www.w3.org/2000/svg"
   xmlns:sodipodi="http://sodipodi.sourceforge.net/DTD/sodipodi-0.dtd"
   xmlns:inkscape="http://www.inkscape.org/namespaces/inkscape"
   width="210mm"
   height="297mm"
   viewBox="0 0 210 297"
   version="1.1"
   id="svg8"
   sodipodi:docname="graphics.svg"
   inkscape:version="0.92.4 (5da689c313, 2019-01-14)">
  <defs
     id="defs2" />
  <sodipodi:namedview
     id="base"
     pagecolor="#ffffff"
     bordercolor="#666666"
     borderopacity="1.0"
     inkscape:pageopacity="0.0"
     inkscape:pageshadow="2"
     inkscape:zoom="1.8101934"
     inkscape:cx="-613.54821"
     inkscape:cy="711.20701"
     inkscape:document-units="mm"
     inkscape:current-layer="layer1"
     showgrid="false"
     inkscape:window-width="1920"
     inkscape:window-height="986"
     inkscape:window-x="-11"
     inkscape:window-y="-11"
     inkscape:window-maximized="1" />
  <metadata
     id="metadata5">
    <rdf:RDF>
      <cc:Work
         rdf:about="">
        <dc:format>image/svg+xml</dc:format>
        <dc:type
           rdf:resource="http://purl.org/dc/dcmitype/StillImage" />
        <dc:title></dc:title>
      </cc:Work>
    </rdf:RDF>
  </metadata>
  <g
     inkscape:label="Layer 1"
     inkscape:groupmode="layer"
     id="layer1">
    <path
       sodipodi:nodetypes="cccc"
       inkscape:connector-curvature="0"
       id="path837"
       d="m -247.19643,101.96429 c 32.54971,32.41568 133.71775,27.28073 164.797622,15.11904 -49.077812,26.28869 -117.441582,-14.22371 -164.797622,-15.11904 6.83037,65.51 139.53627,58.75945 164.041668,15.875"
       style="opacity:0.072;fill:#ffb73f;fill-opacity:1;stroke:none;stroke-width:0.26458332px;stroke-linecap:butt;stroke-linejoin:miter;stroke-opacity:1"
       inkscape:export-xdpi="25.41"
       inkscape:export-ydpi="25.41" />
    <path
       style="fill:none;stroke:#000000;stroke-width:0.26458332px;stroke-linecap:butt;stroke-linejoin:miter;stroke-opacity:1"
       d="m -164.98661,126.15476 c -3.34428,-6.07246 -8.50066,-11.01023 -12.85118,-15.11905 5.09297,-0.059 12.22535,-0.0103 17.00892,0.18899 5.24935,5.85639 8.77358,9.62568 11.52827,15.68601 -5.15706,0.78109 -11.54869,0.10599 -15.68601,-0.75595 z"
       id="path819"
       inkscape:connector-curvature="0"
       sodipodi:nodetypes="ccccc"
       inkscape:export-xdpi="25.41"
       inkscape:export-ydpi="25.41" />
    <path
       style="fill:#d97400;stroke:none;stroke-width:0.26458332px;stroke-linecap:butt;stroke-linejoin:miter;stroke-opacity:1;fill-opacity:1"
       d="m -247.19643,101.96429 c 32.54971,32.41568 133.71775,27.28073 164.797622,15.11904 -44.491932,-29.094592 -115.779202,-34.300165 -164.797622,-15.11904 6.83037,65.51 139.53627,58.75945 164.041668,15.875"
       id="path815"
       inkscape:connector-curvature="0"
       sodipodi:nodetypes="ccc"
       inkscape:export-xdpi="25.41"
       inkscape:export-ydpi="25.41" />
    <path
       style="fill:#b36000;fill-opacity:1;stroke:none;stroke-width:0.26458332px;stroke-linecap:butt;stroke-linejoin:miter;stroke-opacity:1"
       d="m -224.89583,117.83929 c 33.76006,-8.72992 87.40331,-7.38045 117.73958,10.54553"
       id="path821"
       inkscape:connector-curvature="0"
       sodipodi:nodetypes="cc"
       inkscape:export-xdpi="25.41"
       inkscape:export-ydpi="25.41" />
    <path
       style="fill:#d4d4d4;fill-opacity:1;stroke:none;stroke-width:0.26458332px;stroke-linecap:butt;stroke-linejoin:miter;stroke-opacity:1"
       d="m -173.69349,81.687205 c 9.63839,10.583333 11.54171,33.506245 11.54171,33.506245 v 0 l -20.22173,-0.37797 c 0,0 4.27041,-29.740684 3.71491,-29.627247 l -1.63604,0.334087 z"
       id="path831"
       inkscape:connector-curvature="0"
       sodipodi:nodetypes="ccccscc"
       inkscape:export-xdpi="25.41"
       inkscape:export-ydpi="25.41" />
    <path
       style="fill:#ffba7c;fill-opacity:1;stroke:none;stroke-width:0.29047439px;stroke-linecap:butt;stroke-linejoin:miter;stroke-opacity:1"
       d="m -175.75893,69.83631 c -25.93585,43.362 28.81957,1.52309 0,0 z"
       id="path825"
       inkscape:connector-curvature="0"
       sodipodi:nodetypes="cc"
       inkscape:export-xdpi="25.41"
       inkscape:export-ydpi="25.41" />
    <path
       style="fill:#1b1b1b;fill-opacity:1;stroke:none;stroke-width:0.26458332px;stroke-linecap:butt;stroke-linejoin:miter;stroke-opacity:1"
       d="m -176.41936,71.273384 c -18.54624,-9.246004 24.1895,-7.975336 7.74523,9.034783 -2.75707,2.85195 -3.91072,-8.019077 -7.74523,-9.034783"
       id="path827"
       inkscape:connector-curvature="0"
       sodipodi:nodetypes="csc"
       inkscape:export-xdpi="25.41"
       inkscape:export-ydpi="25.41" />
    <path
       style="fill:#003d74;stroke:none;stroke-width:0.26458332px;stroke-linecap:butt;stroke-linejoin:miter;stroke-opacity:1;fill-opacity:1"
       d="m -182.37351,114.81548 c -14.74107,3.40178 -14.74107,3.40178 -14.74107,3.40178 l -2.07887,9.82738 c 0,0 34.20684,-1.88988 34.20684,-1.88988 0,0 -2.83483,10.96131 0,0 2.83483,-10.96131 2.83483,-10.96131 2.83483,-10.96131 z"
       id="path833"
       inkscape:connector-curvature="0"
       inkscape:export-xdpi="25.41"
       inkscape:export-ydpi="25.41" />
    <path
       style="fill:#ffa951;fill-opacity:1;stroke:none;stroke-width:0.99999994px;stroke-linecap:butt;stroke-linejoin:miter;stroke-opacity:1"
       d="m -934.28516,385.37695 c 25.81558,247.59685 527.38118,222.08296 620,60 l -3.85546,-0.37304 c 2.31468,-0.81972 4.57114,-1.64631 6.71289,-2.48438 -217.65467,20.23558 -425.97811,48.9842 -622.85743,-57.14258 z"
       transform="scale(0.26458333)"
       id="path841"
       inkscape:connector-curvature="0"
       sodipodi:nodetypes="ccccc"
       inkscape:export-xdpi="25.41"
       inkscape:export-ydpi="25.41" />
    <path
       style="opacity:0.4;fill:#3278ff;fill-opacity:1;stroke:none;stroke-width:0.99999994px;stroke-linecap:butt;stroke-linejoin:miter;stroke-opacity:1"
       d="M -907.0918 491.21094 C -902.20128 491.98013 -836.64817 535.6892 -827.66602 555.79883 C -873.10515 562.16504 -916.92649 567.96834 -957.14258 571.0918 C -817.03073 681.7064 -517.11916 592.54242 -328.57227 573.94922 C -434.90806 508.1223 -599.59333 524.23665 -755.64062 545.69141 C -765.08102 510.01022 -908.36063 491.01136 -907.0918 491.21094 z "
       transform="scale(0.26458333)"
       id="path817"
       inkscape:export-xdpi="25.41"
       inkscape:export-ydpi="25.41" />
  </g>
</svg>
